<svg width="12" height="12" viewBox="0 0 12 12" fill="none" xmlns="http://www.w3.org/2000/svg">
<g clip-path="url(#clip0)">
<path d="M12.7071 0.707107C13.0976 0.316583 13.0976 -0.316583 12.7071 -0.707107C12.3166 -1.09763 11.6834 -1.09763 11.2929 -0.707107L6 4.58579L0.707107 -0.707107C0.316583 -1.09763 -0.316583 -1.09763 -0.707107 -0.707107C-1.09763 -0.316583 -1.09763 0.316583 -0.707107 0.707107L4.58579 6L-0.707107 11.2929C-1.09763 11.6834 -1.09763 12.3166 -0.707107 12.7071C-0.316583 13.0976 0.316583 13.0976 0.707107 12.7071L6 7.41421L11.2929 12.7071C11.6834 13.0976 12.3166 13.0976 12.7071 12.7071C13.0976 12.3166 13.0976 11.6834 12.7071 11.2929L7.41421 6L12.7071 0.707107Z" fill="#EB5757"/>
</g>
<defs>
<clipPath id="clip0">
<rect width="12" height="12" fill="white"/>
</clipPath>
</defs>
</svg>
