<svg width="69" height="74" viewBox="0 0 69 74" fill="none" xmlns="http://www.w3.org/2000/svg">
<path fill-rule="evenodd" clip-rule="evenodd" d="M17.6756 11.4775C24.1888 11.4775 29.8906 14.9887 32.9608 20.2337V8.93179C31.0529 8.38316 29.6713 6.62752 29.6713 4.56465C29.6713 2.04093 31.7108 0 34.2108 0C36.7327 0 38.7722 2.04093 38.7722 4.56465C38.7722 6.62752 37.3906 8.38316 35.4827 8.93179V20.2337C38.5529 14.9887 44.2328 11.4775 50.746 11.4775C60.5268 11.4775 68.4435 19.3998 68.4435 29.1655V45.7123H0V29.1655C0 19.3998 7.91672 11.4775 17.6756 11.4775ZM34.2108 74C46.1188 74 55.8118 64.6293 56.382 52.8666H44.9345C44.6056 58.5065 39.9345 62.9834 34.2108 62.9834C28.4871 62.9834 23.816 58.5065 23.487 52.8666H12.0396C12.6097 64.6293 22.3247 74 34.2108 74ZM50.746 34.7177H56.8864V29.1655C56.8864 25.7639 54.1451 23.0208 50.746 23.0208C47.3468 23.0208 44.6056 25.7639 44.6056 29.1655V34.7177H50.746ZM11.5571 34.7177H17.6756H23.816V29.1655C23.816 25.7639 21.0747 23.0208 17.6756 23.0208C14.2984 23.0208 11.5571 25.7639 11.5571 29.1655V34.7177Z" fill="#E0E0E0"/>
</svg>
