<svg width="55" height="52" viewBox="0 0 55 52" fill="none" xmlns="http://www.w3.org/2000/svg">
<path d="M2.87791 8.77299C2.87791 7.98013 2.23367 7.3374 1.43895 7.3374C0.644241 7.3374 0 7.98013 0 8.77299V50.5644C0 51.3572 0.644241 52 1.43895 52C2.23367 52 2.87791 51.3572 2.87791 50.5644V8.77299Z" fill="#1E62F2"/>
<path d="M0 2.53278C0 1.13396 1.13663 0 2.53873 0H52.1611C54.0564 0 55.2833 1.99647 54.4238 3.6815L46.294 19.6196L54.4238 35.5578C55.2833 37.2428 54.0564 39.2393 52.1611 39.2393H0V2.53278Z" fill="white"/>
<path fill-rule="evenodd" clip-rule="evenodd" d="M38.177 28.7709C36.8526 30.0511 35.1348 30.6879 33.4189 30.6879C31.6461 30.6879 29.8773 30.0066 28.5478 28.6528C27.4007 27.4886 26.7163 25.9538 26.6143 24.329C26.5143 22.7226 26.9928 21.1326 27.9585 19.8494C28.0233 19.7626 28.1481 19.6231 28.4214 19.3177L28.4214 19.3177L28.4214 19.3176L28.4331 19.3046C28.9979 18.6765 30.044 17.5066 30.3685 16.954C31.1078 15.6921 31.5157 14.2966 31.5157 13.0251C31.5157 12.1357 31.3206 11.2754 30.9363 10.4693C30.8745 10.3386 30.85 10.1945 30.8647 10.0522C30.896 9.76964 31.2578 8.36739 31.5716 7.18581C30.398 7.43162 29.0067 7.7084 28.6684 7.72001C28.5223 7.72483 28.3772 7.68903 28.2488 7.61645C27.1663 6.99711 25.9172 6.67002 24.6367 6.67002C20.8432 6.67002 17.7587 9.52093 17.7587 13.0251C17.7587 14.2976 18.1665 15.693 18.9058 16.955C19.2253 17.501 20.2539 18.6572 20.8144 19.2872L20.8145 19.2873L20.8256 19.2998L20.8331 19.3082L20.8333 19.3084C21.1113 19.6208 21.238 19.7631 21.3041 19.8514C22.2669 21.1336 22.7415 22.7226 22.6404 24.3271C22.5385 25.949 21.8521 27.4818 20.7079 28.6441C19.4333 29.937 17.7283 30.6618 15.9065 30.6821C14.0838 30.7044 12.3641 30.0153 11.062 28.7486L11.0169 28.6992L10.9973 28.677C9.46778 27.0357 9.02362 24.6367 9.86681 22.56C10.3296 21.4191 11.212 20.5297 12.3504 20.0478C13.4887 19.5678 14.7476 19.5562 15.8938 20.0168C17.792 20.7784 18.7117 22.9336 17.9459 24.8206C17.7832 25.2212 17.3243 25.4148 16.9204 25.2522C16.5174 25.0896 16.3213 24.6338 16.485 24.2332C16.9253 23.1465 16.3958 21.9078 15.3036 21.4684C14.5466 21.1636 13.7162 21.1713 12.9651 21.4888C12.2141 21.8042 11.6327 22.3955 11.3267 23.1465C10.71 24.6638 11.0365 26.4232 12.1602 27.6222L12.1798 27.6425L12.1866 27.6502C13.1857 28.6112 14.5025 29.1328 15.8899 29.1154C17.291 29.1009 18.6019 28.5444 19.5823 27.5486C21.4021 25.7003 21.5953 22.8571 20.0422 20.7891L19.6471 20.3381C18.7852 19.3714 17.9136 18.3746 17.5439 17.7437C16.6655 16.2466 16.1821 14.5715 16.1821 13.026C16.1821 8.65773 19.9745 5.10425 24.6357 5.10425C26.1005 5.10425 27.535 5.45842 28.8017 6.13292C29.39 6.04003 31.0323 5.70617 32.4951 5.39069C32.7627 5.33359 33.0432 5.41877 33.2325 5.61618C33.4227 5.81454 33.4944 6.09617 33.4227 6.35939C33.0246 7.82742 32.6 9.45997 32.4676 10.0396C32.8823 10.988 33.0915 11.9915 33.0915 13.027C33.0915 14.5724 32.607 16.2476 31.7285 17.7446C31.3569 18.3795 30.4774 19.3791 29.6087 20.3478L29.2175 20.7929C27.685 22.8252 27.8781 25.7361 29.6724 27.5593C31.6961 29.6137 35.0238 29.6495 37.0908 27.6386L37.1113 27.6183C38.2426 26.4145 38.5761 24.6619 37.9602 23.1465C37.329 21.5942 35.5454 20.8433 33.9836 21.4684C32.8903 21.9078 32.3608 23.1465 32.8021 24.2332C32.9648 24.6338 32.7698 25.0896 32.3669 25.2522C31.9628 25.4129 31.5039 25.2212 31.3412 24.8206C30.5744 22.9336 31.4951 20.7794 33.3924 20.0168C34.5394 19.5562 35.7973 19.5678 36.9357 20.0478C38.0741 20.5268 38.9566 21.4191 39.4193 22.56C40.2702 24.6532 39.8037 27.0706 38.2311 28.7167L38.185 28.7631L38.177 28.7709ZM22.4179 15.4927C22.4179 15.8789 22.1032 16.1924 21.7139 16.1924C21.3256 16.1924 21.0109 15.8798 21.0109 15.4927C21.0109 15.1066 21.3256 14.7931 21.7139 14.7931C22.1032 14.7931 22.4179 15.1066 22.4179 15.4927ZM28.136 15.4927C28.136 15.1066 27.8223 14.7931 27.433 14.7931C27.0448 14.7931 26.729 15.1066 26.729 15.4927C26.729 15.8789 27.0438 16.1924 27.433 16.1924C27.8223 16.1914 28.136 15.8789 28.136 15.4927ZM24.7367 19.111C25.7829 19.111 26.2133 18.6949 26.2133 18.4588C26.2133 18.2217 26.025 18.1791 25.7858 18.1791H23.3601C23.1219 18.1791 22.9258 18.2217 22.9258 18.4588C22.9258 18.6959 23.3846 19.111 24.4112 19.111H24.7367ZM32.5875 33.3521C32.5875 33.7856 32.2345 34.1349 31.8 34.1349C30.1068 34.1349 28.1576 33.4015 26.5868 32.1733C25.7289 31.5018 25.0563 30.744 24.5886 29.935C24.121 30.744 23.4474 31.5037 22.5895 32.1733C21.0178 33.4015 19.0686 34.1349 17.3753 34.1349C16.94 34.1349 16.587 33.7827 16.587 33.3521C16.587 32.9176 16.94 32.5673 17.3753 32.5673C18.7068 32.5673 20.3314 31.943 21.6159 30.9405C22.4257 30.3047 23.7847 28.9731 23.7847 27.1761C23.7847 26.7425 24.1376 26.3922 24.572 26.3922H24.6034C25.0397 26.3922 25.3907 26.7445 25.3907 27.1761C25.3907 28.975 26.7506 30.3066 27.5605 30.9405C28.8429 31.943 30.4695 32.5673 31.8 32.5673C32.2354 32.5673 32.5875 32.9185 32.5875 33.3521Z" fill="#1E62F2"/>
</svg>
