<svg width="88" height="16" viewBox="0 0 88 16" fill="none" xmlns="http://www.w3.org/2000/svg">
<path fill-rule="evenodd" clip-rule="evenodd" d="M7.99995 12.7532L3.19596 15.2788L4.11344 9.92947L0.226929 6.14106L5.59795 5.3606L7.99995 0.493629L10.4019 5.3606L15.773 6.14106L11.8865 9.92947L12.8039 15.2788L7.99995 12.7532Z" fill="#7690C9"/>
<path fill-rule="evenodd" clip-rule="evenodd" d="M25.9999 12.7532L21.196 15.2788L22.1134 9.92947L18.2269 6.14106L23.598 5.3606L25.9999 0.493629L28.4019 5.3606L33.773 6.14106L29.8865 9.92947L30.8039 15.2788L25.9999 12.7532Z" fill="#7690C9"/>
<path fill-rule="evenodd" clip-rule="evenodd" d="M43.9999 12.7532L39.196 15.2788L40.1134 9.92947L36.2269 6.14106L41.598 5.3606L43.9999 0.493629L46.4019 5.3606L51.773 6.14106L47.8865 9.92947L48.8039 15.2788L43.9999 12.7532Z" fill="#7690C9"/>
<path fill-rule="evenodd" clip-rule="evenodd" d="M61.9999 12.7532L57.196 15.2788L58.1134 9.92947L54.2269 6.14106L59.598 5.3606L61.9999 0.493629L64.4019 5.3606L69.773 6.14106L65.8865 9.92947L66.8039 15.2788L61.9999 12.7532Z" fill="#7690C9"/>
<path fill-rule="evenodd" clip-rule="evenodd" d="M79.9999 12.7532L75.196 15.2788L76.1134 9.92947L72.2269 6.14106L77.598 5.3606L79.9999 0.493629L82.4019 5.3606L87.773 6.14106L83.8865 9.92947L84.8039 15.2788L79.9999 12.7532Z" fill="#7690C9"/>
</svg>
