<svg width="18" height="16" viewBox="0 0 18 16" fill="none" xmlns="http://www.w3.org/2000/svg">
<path d="M8.32958 9.62896H5.70515V0.579186C5.70515 0.253394 5.45175 0 5.12596 0H3.91329C3.5875 0 3.33411 0.253394 3.33411 0.579186V9.62896H0.709671C0.438178 9.62896 0.184784 9.77376 0.0761867 10.0272C-0.0505101 10.2624 -0.014311 10.552 0.148585 10.7692L3.94949 15.7285C4.07619 15.9095 4.29338 16 4.51058 16C4.72777 16 4.94496 15.8914 5.07166 15.7285L8.87257 10.7692C9.03546 10.552 9.07166 10.2624 8.94496 10.0272C8.85447 9.77376 8.60107 9.62896 8.32958 9.62896Z" fill="#262626"/>
<path d="M17.0536 5.23077L13.2527 0.271493C13.126 0.0904977 12.9088 0 12.6916 0C12.4744 0 12.2572 0.108597 12.1305 0.271493L8.32962 5.23077C8.16672 5.44796 8.13052 5.73756 8.25722 5.97285C8.38391 6.20815 8.61921 6.37104 8.8907 6.37104H11.497V15.4208C11.497 15.7466 11.7504 16 12.0762 16H13.2889C13.6147 16 13.8681 15.7466 13.8681 15.4208V6.37104H16.4925C16.764 6.37104 17.0174 6.22624 17.126 5.97285C17.2527 5.73756 17.2165 5.44796 17.0536 5.23077Z" fill="#262626" fill-opacity="0.15"/>
</svg>
