<svg width="324" height="160" viewBox="0 0 324 160" fill="none" xmlns="http://www.w3.org/2000/svg">
<mask id="mask0" mask-type="alpha" maskUnits="userSpaceOnUse" x="0" y="0" width="324" height="160">
<path d="M0 4C0 1.79086 1.79086 0 4 0H324V160H4C1.79086 160 0 158.209 0 156V4Z" fill="#0088CC"/>
</mask>
<g mask="url(#mask0)">
<path d="M0 4C0 1.79086 1.79086 0 4 0H324V160H4C1.79086 160 0 158.209 0 156V4Z" fill="#0088CC"/>
<g opacity="0.5">
<path opacity="0.25" d="M30 36.8889L14 20.8889M30 36.8889L46 20.8889M30 36.8889L24.2857 20.8889M30 36.8889L35.7143 20.8889M14 20.8889L21.1111 12M14 20.8889H24.2857M38.8889 12L46 20.8889M38.8889 12H30M38.8889 12L35.7143 20.8889M46 20.8889H35.7143M21.1111 12L24.2857 20.8889M21.1111 12H30M24.2857 20.8889H30H35.7143M24.2857 20.8889L30 12M30 12L35.7143 20.8889" stroke="white" stroke-width="2" stroke-linecap="round" stroke-linejoin="round"/>
<path opacity="0.25" d="M74 36.8889L58 20.8889M74 36.8889L90 20.8889M74 36.8889L68.2857 20.8889M74 36.8889L79.7143 20.8889M58 20.8889L65.1111 12M58 20.8889H68.2857M82.8889 12L90 20.8889M82.8889 12H74M82.8889 12L79.7143 20.8889M90 20.8889H79.7143M65.1111 12L68.2857 20.8889M65.1111 12H74M68.2857 20.8889H74H79.7143M68.2857 20.8889L74 12M74 12L79.7143 20.8889" stroke="white" stroke-width="2" stroke-linecap="round" stroke-linejoin="round"/>
<path opacity="0.25" d="M118 36.8889L102 20.8889M118 36.8889L134 20.8889M118 36.8889L112.286 20.8889M118 36.8889L123.714 20.8889M102 20.8889L109.111 12M102 20.8889H112.286M126.889 12L134 20.8889M126.889 12H118M126.889 12L123.714 20.8889M134 20.8889H123.714M109.111 12L112.286 20.8889M109.111 12H118M112.286 20.8889H118H123.714M112.286 20.8889L118 12M118 12L123.714 20.8889" stroke="white" stroke-width="2" stroke-linecap="round" stroke-linejoin="round"/>
<path opacity="0.25" d="M162 36.8889L146 20.8889M162 36.8889L178 20.8889M162 36.8889L156.286 20.8889M162 36.8889L167.714 20.8889M146 20.8889L153.111 12M146 20.8889H156.286M170.889 12L178 20.8889M170.889 12H162M170.889 12L167.714 20.8889M178 20.8889H167.714M153.111 12L156.286 20.8889M153.111 12H162M156.286 20.8889H162H167.714M156.286 20.8889L162 12M162 12L167.714 20.8889" stroke="white" stroke-width="2" stroke-linecap="round" stroke-linejoin="round"/>
<path opacity="0.25" d="M206 36.8889L190 20.8889M206 36.8889L222 20.8889M206 36.8889L200.286 20.8889M206 36.8889L211.714 20.8889M190 20.8889L197.111 12M190 20.8889H200.286M214.889 12L222 20.8889M214.889 12H206M214.889 12L211.714 20.8889M222 20.8889H211.714M197.111 12L200.286 20.8889M197.111 12H206M200.286 20.8889H206H211.714M200.286 20.8889L206 12M206 12L211.714 20.8889" stroke="white" stroke-width="2" stroke-linecap="round" stroke-linejoin="round"/>
<path opacity="0.25" d="M250 36.8889L234 20.8889M250 36.8889L266 20.8889M250 36.8889L244.286 20.8889M250 36.8889L255.714 20.8889M234 20.8889L241.111 12M234 20.8889H244.286M258.889 12L266 20.8889M258.889 12H250M258.889 12L255.714 20.8889M266 20.8889H255.714M241.111 12L244.286 20.8889M241.111 12H250M244.286 20.8889H250H255.714M244.286 20.8889L250 12M250 12L255.714 20.8889" stroke="white" stroke-width="2" stroke-linecap="round" stroke-linejoin="round"/>
<path opacity="0.25" d="M294 36.8889L278 20.8889M294 36.8889L310 20.8889M294 36.8889L288.286 20.8889M294 36.8889L299.714 20.8889M278 20.8889L285.111 12M278 20.8889H288.286M302.889 12L310 20.8889M302.889 12H294M302.889 12L299.714 20.8889M310 20.8889H299.714M285.111 12L288.286 20.8889M285.111 12H294M288.286 20.8889H294H299.714M288.286 20.8889L294 12M294 12L299.714 20.8889" stroke="white" stroke-width="2" stroke-linecap="round" stroke-linejoin="round"/>
</g>
<g opacity="0.5">
<path opacity="0.25" d="M30 110.889L14 94.8889M30 110.889L46 94.8889M30 110.889L24.2857 94.8889M30 110.889L35.7143 94.8889M14 94.8889L21.1111 86M14 94.8889H24.2857M38.8889 86L46 94.8889M38.8889 86H30M38.8889 86L35.7143 94.8889M46 94.8889H35.7143M21.1111 86L24.2857 94.8889M21.1111 86H30M24.2857 94.8889H30H35.7143M24.2857 94.8889L30 86M30 86L35.7143 94.8889" stroke="white" stroke-width="2" stroke-linecap="round" stroke-linejoin="round"/>
<path opacity="0.25" d="M74 110.889L58 94.8889M74 110.889L90 94.8889M74 110.889L68.2857 94.8889M74 110.889L79.7143 94.8889M58 94.8889L65.1111 86M58 94.8889H68.2857M82.8889 86L90 94.8889M82.8889 86H74M82.8889 86L79.7143 94.8889M90 94.8889H79.7143M65.1111 86L68.2857 94.8889M65.1111 86H74M68.2857 94.8889H74H79.7143M68.2857 94.8889L74 86M74 86L79.7143 94.8889" stroke="white" stroke-width="2" stroke-linecap="round" stroke-linejoin="round"/>
<path opacity="0.25" d="M118 110.889L102 94.8889M118 110.889L134 94.8889M118 110.889L112.286 94.8889M118 110.889L123.714 94.8889M102 94.8889L109.111 86M102 94.8889H112.286M126.889 86L134 94.8889M126.889 86H118M126.889 86L123.714 94.8889M134 94.8889H123.714M109.111 86L112.286 94.8889M109.111 86H118M112.286 94.8889H118H123.714M112.286 94.8889L118 86M118 86L123.714 94.8889" stroke="white" stroke-width="2" stroke-linecap="round" stroke-linejoin="round"/>
<path opacity="0.25" d="M162 110.889L146 94.8889M162 110.889L178 94.8889M162 110.889L156.286 94.8889M162 110.889L167.714 94.8889M146 94.8889L153.111 86M146 94.8889H156.286M170.889 86L178 94.8889M170.889 86H162M170.889 86L167.714 94.8889M178 94.8889H167.714M153.111 86L156.286 94.8889M153.111 86H162M156.286 94.8889H162H167.714M156.286 94.8889L162 86M162 86L167.714 94.8889" stroke="white" stroke-width="2" stroke-linecap="round" stroke-linejoin="round"/>
<path opacity="0.25" d="M206 110.889L190 94.8889M206 110.889L222 94.8889M206 110.889L200.286 94.8889M206 110.889L211.714 94.8889M190 94.8889L197.111 86M190 94.8889H200.286M214.889 86L222 94.8889M214.889 86H206M214.889 86L211.714 94.8889M222 94.8889H211.714M197.111 86L200.286 94.8889M197.111 86H206M200.286 94.8889H206H211.714M200.286 94.8889L206 86M206 86L211.714 94.8889" stroke="white" stroke-width="2" stroke-linecap="round" stroke-linejoin="round"/>
<path opacity="0.25" d="M250 110.889L234 94.8889M250 110.889L266 94.8889M250 110.889L244.286 94.8889M250 110.889L255.714 94.8889M234 94.8889L241.111 86M234 94.8889H244.286M258.889 86L266 94.8889M258.889 86H250M258.889 86L255.714 94.8889M266 94.8889H255.714M241.111 86L244.286 94.8889M241.111 86H250M244.286 94.8889H250H255.714M244.286 94.8889L250 86M250 86L255.714 94.8889" stroke="white" stroke-width="2" stroke-linecap="round" stroke-linejoin="round"/>
<path opacity="0.25" d="M294 110.889L278 94.8889M294 110.889L310 94.8889M294 110.889L288.286 94.8889M294 110.889L299.714 94.8889M278 94.8889L285.111 86M278 94.8889H288.286M302.889 86L310 94.8889M302.889 86H294M302.889 86L299.714 94.8889M310 94.8889H299.714M285.111 86L288.286 94.8889M285.111 86H294M288.286 94.8889H294H299.714M288.286 94.8889L294 86M294 86L299.714 94.8889" stroke="white" stroke-width="2" stroke-linecap="round" stroke-linejoin="round"/>
</g>
<g opacity="0.5">
<path opacity="0.25" d="M9 73.8889L-7 57.8889M9 73.8889L25 57.8889M9 73.8889L3.28571 57.8889M9 73.8889L14.7143 57.8889M-7 57.8889L0.111111 49M-7 57.8889H3.28571M17.8889 49L25 57.8889M17.8889 49H9M17.8889 49L14.7143 57.8889M25 57.8889H14.7143M0.111111 49L3.28571 57.8889M0.111111 49H9M3.28571 57.8889H9H14.7143M3.28571 57.8889L9 49M9 49L14.7143 57.8889" stroke="white" stroke-width="2" stroke-linecap="round" stroke-linejoin="round"/>
<path opacity="0.25" d="M53 73.8889L37 57.8889M53 73.8889L69 57.8889M53 73.8889L47.2857 57.8889M53 73.8889L58.7143 57.8889M37 57.8889L44.1111 49M37 57.8889H47.2857M61.8889 49L69 57.8889M61.8889 49H53M61.8889 49L58.7143 57.8889M69 57.8889H58.7143M44.1111 49L47.2857 57.8889M44.1111 49H53M47.2857 57.8889H53H58.7143M47.2857 57.8889L53 49M53 49L58.7143 57.8889" stroke="white" stroke-width="2" stroke-linecap="round" stroke-linejoin="round"/>
<path opacity="0.25" d="M97 73.8889L81 57.8889M97 73.8889L113 57.8889M97 73.8889L91.2857 57.8889M97 73.8889L102.714 57.8889M81 57.8889L88.1111 49M81 57.8889H91.2857M105.889 49L113 57.8889M105.889 49H97M105.889 49L102.714 57.8889M113 57.8889H102.714M88.1111 49L91.2857 57.8889M88.1111 49H97M91.2857 57.8889H97H102.714M91.2857 57.8889L97 49M97 49L102.714 57.8889" stroke="white" stroke-width="2" stroke-linecap="round" stroke-linejoin="round"/>
<path opacity="0.25" d="M141 73.8889L125 57.8889M141 73.8889L157 57.8889M141 73.8889L135.286 57.8889M141 73.8889L146.714 57.8889M125 57.8889L132.111 49M125 57.8889H135.286M149.889 49L157 57.8889M149.889 49H141M149.889 49L146.714 57.8889M157 57.8889H146.714M132.111 49L135.286 57.8889M132.111 49H141M135.286 57.8889H141H146.714M135.286 57.8889L141 49M141 49L146.714 57.8889" stroke="white" stroke-width="2" stroke-linecap="round" stroke-linejoin="round"/>
<path opacity="0.25" d="M185 73.8889L169 57.8889M185 73.8889L201 57.8889M185 73.8889L179.286 57.8889M185 73.8889L190.714 57.8889M169 57.8889L176.111 49M169 57.8889H179.286M193.889 49L201 57.8889M193.889 49H185M193.889 49L190.714 57.8889M201 57.8889H190.714M176.111 49L179.286 57.8889M176.111 49H185M179.286 57.8889H185H190.714M179.286 57.8889L185 49M185 49L190.714 57.8889" stroke="white" stroke-width="2" stroke-linecap="round" stroke-linejoin="round"/>
<path opacity="0.25" d="M229 73.8889L213 57.8889M229 73.8889L245 57.8889M229 73.8889L223.286 57.8889M229 73.8889L234.714 57.8889M213 57.8889L220.111 49M213 57.8889H223.286M237.889 49L245 57.8889M237.889 49H229M237.889 49L234.714 57.8889M245 57.8889H234.714M220.111 49L223.286 57.8889M220.111 49H229M223.286 57.8889H229H234.714M223.286 57.8889L229 49M229 49L234.714 57.8889" stroke="white" stroke-width="2" stroke-linecap="round" stroke-linejoin="round"/>
<path opacity="0.25" d="M273 73.8889L257 57.8889M273 73.8889L289 57.8889M273 73.8889L267.286 57.8889M273 73.8889L278.714 57.8889M257 57.8889L264.111 49M257 57.8889H267.286M281.889 49L289 57.8889M281.889 49H273M281.889 49L278.714 57.8889M289 57.8889H278.714M264.111 49L267.286 57.8889M264.111 49H273M267.286 57.8889H273H278.714M267.286 57.8889L273 49M273 49L278.714 57.8889" stroke="white" stroke-width="2" stroke-linecap="round" stroke-linejoin="round"/>
<path opacity="0.25" d="M317 73.8889L301 57.8889M317 73.8889L333 57.8889M317 73.8889L311.286 57.8889M317 73.8889L322.714 57.8889M301 57.8889L308.111 49M301 57.8889H311.286M325.889 49L333 57.8889M325.889 49H317M325.889 49L322.714 57.8889M333 57.8889H322.714M308.111 49L311.286 57.8889M308.111 49H317M311.286 57.8889H317H322.714M311.286 57.8889L317 49M317 49L322.714 57.8889" stroke="white" stroke-width="2" stroke-linecap="round" stroke-linejoin="round"/>
</g>
<g opacity="0.5">
<path opacity="0.25" d="M9 147.889L-7 131.889M9 147.889L25 131.889M9 147.889L3.28571 131.889M9 147.889L14.7143 131.889M-7 131.889L0.111111 123M-7 131.889H3.28571M17.8889 123L25 131.889M17.8889 123H9M17.8889 123L14.7143 131.889M25 131.889H14.7143M0.111111 123L3.28571 131.889M0.111111 123H9M3.28571 131.889H9H14.7143M3.28571 131.889L9 123M9 123L14.7143 131.889" stroke="white" stroke-width="2" stroke-linecap="round" stroke-linejoin="round"/>
<path opacity="0.25" d="M53 147.889L37 131.889M53 147.889L69 131.889M53 147.889L47.2857 131.889M53 147.889L58.7143 131.889M37 131.889L44.1111 123M37 131.889H47.2857M61.8889 123L69 131.889M61.8889 123H53M61.8889 123L58.7143 131.889M69 131.889H58.7143M44.1111 123L47.2857 131.889M44.1111 123H53M47.2857 131.889H53H58.7143M47.2857 131.889L53 123M53 123L58.7143 131.889" stroke="white" stroke-width="2" stroke-linecap="round" stroke-linejoin="round"/>
<path opacity="0.25" d="M97 147.889L81 131.889M97 147.889L113 131.889M97 147.889L91.2857 131.889M97 147.889L102.714 131.889M81 131.889L88.1111 123M81 131.889H91.2857M105.889 123L113 131.889M105.889 123H97M105.889 123L102.714 131.889M113 131.889H102.714M88.1111 123L91.2857 131.889M88.1111 123H97M91.2857 131.889H97H102.714M91.2857 131.889L97 123M97 123L102.714 131.889" stroke="white" stroke-width="2" stroke-linecap="round" stroke-linejoin="round"/>
<path opacity="0.25" d="M141 147.889L125 131.889M141 147.889L157 131.889M141 147.889L135.286 131.889M141 147.889L146.714 131.889M125 131.889L132.111 123M125 131.889H135.286M149.889 123L157 131.889M149.889 123H141M149.889 123L146.714 131.889M157 131.889H146.714M132.111 123L135.286 131.889M132.111 123H141M135.286 131.889H141H146.714M135.286 131.889L141 123M141 123L146.714 131.889" stroke="white" stroke-width="2" stroke-linecap="round" stroke-linejoin="round"/>
<path opacity="0.25" d="M185 147.889L169 131.889M185 147.889L201 131.889M185 147.889L179.286 131.889M185 147.889L190.714 131.889M169 131.889L176.111 123M169 131.889H179.286M193.889 123L201 131.889M193.889 123H185M193.889 123L190.714 131.889M201 131.889H190.714M176.111 123L179.286 131.889M176.111 123H185M179.286 131.889H185H190.714M179.286 131.889L185 123M185 123L190.714 131.889" stroke="white" stroke-width="2" stroke-linecap="round" stroke-linejoin="round"/>
<path opacity="0.25" d="M229 147.889L213 131.889M229 147.889L245 131.889M229 147.889L223.286 131.889M229 147.889L234.714 131.889M213 131.889L220.111 123M213 131.889H223.286M237.889 123L245 131.889M237.889 123H229M237.889 123L234.714 131.889M245 131.889H234.714M220.111 123L223.286 131.889M220.111 123H229M223.286 131.889H229H234.714M223.286 131.889L229 123M229 123L234.714 131.889" stroke="white" stroke-width="2" stroke-linecap="round" stroke-linejoin="round"/>
<path opacity="0.25" d="M273 147.889L257 131.889M273 147.889L289 131.889M273 147.889L267.286 131.889M273 147.889L278.714 131.889M257 131.889L264.111 123M257 131.889H267.286M281.889 123L289 131.889M281.889 123H273M281.889 123L278.714 131.889M289 131.889H278.714M264.111 123L267.286 131.889M264.111 123H273M267.286 131.889H273H278.714M267.286 131.889L273 123M273 123L278.714 131.889" stroke="white" stroke-width="2" stroke-linecap="round" stroke-linejoin="round"/>
<path opacity="0.25" d="M317 147.889L301 131.889M317 147.889L333 131.889M317 147.889L311.286 131.889M317 147.889L322.714 131.889M301 131.889L308.111 123M301 131.889H311.286M325.889 123L333 131.889M325.889 123H317M325.889 123L322.714 131.889M333 131.889H322.714M308.111 123L311.286 131.889M308.111 123H317M311.286 131.889H317H322.714M311.286 131.889L317 123M317 123L322.714 131.889" stroke="white" stroke-width="2" stroke-linecap="round" stroke-linejoin="round"/>
</g>
</g>
</svg>
